# xmcd
#
# Track frame offsets: 
#        150
#        18496
#        38433
#        49851
#        66968
#        85786
#        102065
#        116259
#        125104
#        142416
#        161084
#        176548
#        191608
#
# Disc length: 2837 seconds
#
# Revision: 0
# Processed by: cddbd v1.5.2PL0 Copyright (c) Steve Scherf et al.
# Submitted via: ExactAudioCopy v0.95b4
#
DISCID=b10b130d
DTITLE=Wrinkle Neck Mules - Let The Lead Fly
DYEAR=2009
DGENRE=Country
TTITLE0=Let The Lead Fly
TTITLE1=Fortune Fades
TTITLE2=Medicine Bow
TTITLE3=Dopamine Dream
TTITLE4=The Waters All Run Dry
TTITLE5=One Hand In The Furnace
TTITLE6=Pleasure Is The Absence Of Pain
TTITLE7=Silver King
TTITLE8=Cracks And Seams
TTITLE9=Catfish And Color TV's
TTITLE10=Pull Me From The Wreckage
TTITLE11=Howard Johnson
TTITLE12=Before The Rise And Fall
EXTD=
EXTT0=
EXTT1=
EXTT2=
EXTT3=
EXTT4=
EXTT5=
EXTT6=
EXTT7=
EXTT8=
EXTT9=
EXTT10=
EXTT11=
EXTT12=
PLAYORDER=
